<svg width="111" height="96" viewBox="0 0 111 96" fill="none" xmlns="http://www.w3.org/2000/svg">
<g id="cookies-svgrepo-com 1" clip-path="url(#clip0_22_3)">
<path id="Vector" d="M103.983 46.5674L98.706 47.4801C96.95 47.7839 95.185 46.9939 94.4577 45.5785L88.8051 34.5786C88.3267 33.6473 87.3788 32.9588 86.2359 32.7115L83.2911 32.0749C81.5871 31.7065 80.3919 30.3826 80.3919 28.8634V11.2129C80.3919 10.3881 80.0357 9.59293 79.3933 8.98318L72.2837 2.23581C65.8737 0.480245 58.9639 -0.302942 51.7801 0.106183C24.17 1.67931 1.80325 21.1043 0.118527 44.9905C-1.84717 72.8639 23.7084 95.9999 55.5123 95.9999C85.8472 95.9999 110.482 74.9483 110.988 48.8172L106.446 46.8527C105.684 46.5233 104.818 46.423 103.983 46.5674Z" fill="#FFE6A1"/>
<g id="Group">
<path id="Vector_2" d="M72.7326 81.1032C72.3956 81.1032 72.0637 81.0866 71.7282 81.0813C69.6251 83.1215 66.5718 84.4136 63.1625 84.4136C58.1409 84.4136 53.8833 81.6217 52.3229 77.7389C45.4542 75.3882 39.2587 71.891 34.0519 67.5132C33.2642 67.7186 32.4461 67.8618 31.581 67.8618C26.8242 67.8618 22.968 64.5271 22.968 60.4136C22.968 58.9769 23.4606 57.6474 24.2754 56.5096C24.2171 56.4194 24.1549 56.3319 24.097 56.2413C18.1224 55.8911 13.3981 51.6001 13.3981 46.3447C13.3981 43.2474 15.0386 40.4827 17.6081 38.6613C17.3646 36.8367 17.2261 34.9846 17.2261 33.1032C17.2261 23.6628 20.3904 14.8666 25.8333 7.44312C10.3118 15.9534 0 30.9307 0 47.9999C0 74.5096 24.8511 95.9999 55.5065 95.9999C75.2451 95.9999 92.5644 87.0826 102.406 73.6602C93.8213 78.3671 83.6495 81.1032 72.7326 81.1032Z" fill="#FFD796"/>
<path id="Vector_3" d="M43.0654 39.7241C45.7081 39.7241 47.8505 37.8715 47.8505 35.5862C47.8505 33.3009 45.7081 31.4482 43.0654 31.4482C40.4227 31.4482 38.2804 33.3009 38.2804 35.5862C38.2804 37.8715 40.4227 39.7241 43.0654 39.7241Z" fill="#FFD796"/>
<path id="Vector_4" d="M93.7868 67.0344C96.4296 67.0344 98.5719 65.1818 98.5719 62.8965C98.5719 60.6112 96.4296 58.7585 93.7868 58.7585C91.1441 58.7585 89.0018 60.6112 89.0018 62.8965C89.0018 65.1818 91.1441 67.0344 93.7868 67.0344Z" fill="#FFD796"/>
<path id="Vector_5" d="M50.2429 67.0345C52.0928 67.0345 53.5924 65.7376 53.5924 64.138C53.5924 62.5383 52.0928 61.2415 50.2429 61.2415C48.393 61.2415 46.8934 62.5383 46.8934 64.138C46.8934 65.7376 48.393 67.0345 50.2429 67.0345Z" fill="#FFD796"/>
<path id="Vector_6" d="M76.0822 40.5515C77.9321 40.5515 79.4317 39.2547 79.4317 37.655C79.4317 36.0554 77.9321 34.7585 76.0822 34.7585C74.2324 34.7585 72.7328 36.0554 72.7328 37.655C72.7328 39.2547 74.2324 40.5515 76.0822 40.5515Z" fill="#FFD796"/>
<path id="Vector_7" d="M62.6841 14.8965C64.534 14.8965 66.0336 13.5997 66.0336 12C66.0336 10.4003 64.534 9.10352 62.6841 9.10352C60.8343 9.10352 59.3347 10.4003 59.3347 12C59.3347 13.5997 60.8343 14.8965 62.6841 14.8965Z" fill="#FFD796"/>
</g>
<g id="Group_2">
<path id="Vector_8" d="M52.7269 42.6349L50.5145 45.8241C49.1921 47.7302 50.3749 50.1996 52.8683 50.7386L59.4537 52.1625C61.5046 52.606 63.5828 51.5276 64.0953 49.7539L64.8487 47.1476C65.0011 46.6204 65.0011 46.0691 64.8487 45.5419L64.0522 42.7862C63.5568 41.0719 61.5918 39.9964 59.5883 40.3429L55.2585 41.0918C54.2009 41.275 53.2819 41.8352 52.7269 42.6349Z" fill="#B97850"/>
<path id="Vector_9" d="M63.7734 63.1261L61.466 66.452C60.319 68.1056 61.0422 70.2538 63.0363 71.1161L70.3818 74.2925C72.5719 75.2398 75.2129 74.189 75.8069 72.1346L76.5636 69.5171L77.4479 66.4573C77.9983 64.553 76.5228 62.6549 74.2757 62.3773L67.5964 61.5519C66.0723 61.3636 64.5656 61.9841 63.7734 63.1261Z" fill="#B97850"/>
<path id="Vector_10" d="M23.5036 43.3795L20.6876 47.4387C19.784 48.7412 20.0214 50.4085 21.2632 51.4827L25.695 55.3157C27.3082 56.7109 29.9652 56.5836 31.3905 55.0429L35.1898 50.9354C35.936 50.1287 36.204 49.0669 35.9141 48.0646L35.0476 45.0668C34.6888 43.8256 33.5354 42.8746 32.0851 42.6235L27.5362 41.8367C25.9501 41.5622 24.3359 42.1799 23.5036 43.3795Z" fill="#B97850"/>
<path id="Vector_11" d="M39.0865 16.5035L36.9151 19.6336C35.6553 21.4496 36.6638 23.8076 38.9868 24.4773L43.6989 25.8357C45.0742 26.2321 46.5905 25.9226 47.6157 25.0361L50.152 22.8425C51.1027 22.0203 51.4849 20.8269 51.1588 19.6989L50.4955 17.4041C50.0694 15.9301 48.5384 14.8962 46.7819 14.8962H42.3684C41.0242 14.8964 39.7783 15.5066 39.0865 16.5035Z" fill="#B97850"/>
<path id="Vector_12" d="M85.313 42.088L83.0976 44.0041C81.603 45.2967 81.603 47.3928 83.0976 48.6856L84.1818 49.6233C85.3468 50.6309 87.1263 50.8806 88.6001 50.2433L94.8692 47.5324C96.4737 46.8385 97.306 45.274 96.8709 43.7688L96.5869 42.7865C96.0915 41.0721 94.1265 39.9966 92.123 40.3431L87.2692 41.1828C86.5279 41.3106 85.8474 41.6258 85.313 42.088Z" fill="#B97850"/>
<path id="Vector_13" d="M71.081 18.4603L68.539 21.3917C67.6053 22.4683 67.5184 23.9271 68.319 25.0811L70.671 28.4713C71.7953 30.0921 74.2579 30.571 76.0762 29.5226L80.8522 26.7688C82.6807 25.7147 83.1095 23.5485 81.7912 22.0283L79.1948 19.0343C78.7276 18.4956 78.0818 18.0928 77.3432 17.88L75.3534 17.3063C73.7903 16.8553 72.0694 17.3203 71.081 18.4603Z" fill="#B97850"/>
<path id="Vector_14" d="M38.3273 70.7596L35.8281 73.4615C34.2235 75.1961 35.0107 77.7779 37.3955 78.6031L40.7526 79.7645C41.6653 80.0803 42.6832 80.0803 43.5957 79.7645L47.3632 78.461C49.6205 77.6803 50.4751 75.3007 49.1266 73.5511L48.4795 72.7117C48.1098 72.2323 47.6023 71.8449 47.0065 71.5871L43.0283 69.8668C41.4134 69.1687 39.4546 69.5409 38.3273 70.7596Z" fill="#B97850"/>
</g>
<g id="Group_3">
<path id="Vector_15" d="M30.4443 54.9226L26.0126 51.0897C24.7708 50.0157 24.5332 48.3483 25.437 47.0459L28.253 42.9867C28.4932 42.6406 28.8106 42.3595 29.1616 42.118L27.5365 41.8372C25.9504 41.5628 24.3359 42.1805 23.5036 43.3799L20.6876 47.4391C19.784 48.7417 20.0214 50.4089 21.2632 51.4831L25.695 55.316C27.1902 56.6092 29.5702 56.578 31.0466 55.342C30.835 55.2207 30.6312 55.0844 30.4443 54.9226Z" fill="#A5694B"/>
<path id="Vector_16" d="M47.5323 24.6574L42.8202 23.2991C40.4974 22.6294 39.4885 20.2714 40.7485 18.4554L42.9199 15.3253C43.0303 15.1659 43.1762 15.0349 43.313 14.8965H42.3682C41.0238 14.8965 39.7779 15.5066 39.0861 16.5037L36.9147 19.6337C35.6546 21.4496 36.6632 23.8076 38.9864 24.4774L43.6985 25.8358C45.0738 26.2322 46.5901 25.9226 47.6153 25.0361L47.972 24.7277C47.8254 24.7014 47.6767 24.699 47.5323 24.6574Z" fill="#A5694B"/>
<path id="Vector_17" d="M63.0853 51.2106L56.4998 49.7868C54.0063 49.2475 52.8234 46.7783 54.1461 44.8722L56.3585 41.683C56.6219 41.3033 56.9718 40.9829 57.3753 40.7258L55.2585 41.092C54.2012 41.2748 53.2817 41.8353 52.7269 42.6351L50.5145 45.8243C49.1921 47.7305 50.3749 50.1998 52.8683 50.7389L59.4537 52.1628C60.841 52.4628 62.2285 52.0555 63.1475 51.2187C63.1267 51.2142 63.1061 51.2151 63.0853 51.2106Z" fill="#A5694B"/>
<path id="Vector_18" d="M74.2462 28.1852L71.8942 24.795C71.0936 23.6409 71.1805 22.1826 72.1142 21.1056L74.6562 18.1744C74.9345 17.8532 75.2801 17.6016 75.6547 17.3929L75.3532 17.3061C73.7901 16.8555 72.0691 17.3205 71.0805 18.4603L68.5388 21.3915C67.6051 22.4683 67.5181 23.9269 68.3188 25.0809L70.6708 28.4711C71.7914 30.0864 74.2406 30.5655 76.0569 29.5311C75.3291 29.2691 74.6848 28.8172 74.2462 28.1852Z" fill="#A5694B"/>
<path id="Vector_19" d="M87.2536 49.4028C85.7588 48.11 85.7588 46.0141 87.2536 44.7213L89.469 42.8052C90.0032 42.3432 90.6837 42.028 91.425 41.9L95.5105 41.1933C94.6364 40.4748 93.3883 40.124 92.1228 40.343L87.269 41.1826C86.5279 41.3108 85.8474 41.6258 85.313 42.0878L83.0976 44.0039C81.603 45.2967 81.603 47.3926 83.0976 48.6854L84.1818 49.6231C85.2746 50.5683 86.9006 50.816 88.315 50.3211L87.2536 49.4028Z" fill="#A5694B"/>
<path id="Vector_20" d="M67.7779 70.8383C65.7838 69.976 65.0603 67.8278 66.2076 66.1743L68.515 62.8486C68.8176 62.4126 69.2454 62.0821 69.7171 61.8141L67.5968 61.5522C66.0723 61.3638 64.5658 61.984 63.7736 63.1261L61.4663 66.452C60.3192 68.1055 61.0424 70.2537 63.0365 71.116L70.382 74.2924C71.8461 74.9256 73.4983 74.6523 74.6189 73.7969L67.7779 70.8383Z" fill="#A5694B"/>
<path id="Vector_21" d="M44.5801 79.2113L41.223 78.05C38.8385 77.2252 38.0513 74.6429 39.6556 72.9083L42.1548 70.2065C42.3135 70.0349 42.4917 69.8849 42.6799 69.7477C41.1394 69.2375 39.3755 69.6263 38.3273 70.7598L35.8281 73.4617C34.2235 75.1962 35.0107 77.7781 37.3955 78.6033L40.7526 79.7647C41.6653 80.0804 42.6832 80.0804 43.5957 79.7647L44.9348 79.3013C44.8162 79.2715 44.6955 79.2513 44.5801 79.2113Z" fill="#A5694B"/>
</g>
<path id="Vector_22" d="M15.32 67.8604C15.0331 67.8604 14.7405 67.804 14.466 67.6858C13.5203 67.2769 13.137 66.283 13.6101 65.4651L15.524 62.1548C15.997 61.3369 17.1434 61.0088 18.0917 61.4145C19.0374 61.8236 19.4207 62.8174 18.9476 63.6353L17.0337 66.9456C16.6983 67.5257 16.0228 67.8604 15.32 67.8604Z" fill="#C98850"/>
<path id="Vector_23" d="M49.7705 89.3791H47.8566C46.7997 89.3791 45.9427 88.6389 45.9427 87.7239C45.9427 86.809 46.7997 86.0686 47.8566 86.0686H49.7705C50.8274 86.0686 51.6844 86.8089 51.6844 87.7239C51.6844 88.6389 50.8274 89.3791 49.7705 89.3791Z" fill="#925F4A"/>
<path id="Vector_24" d="M42.1134 57.9309C41.8266 57.9309 41.5339 57.8745 41.2595 57.7563C40.3138 57.3472 39.9305 56.3533 40.4036 55.5356L42.3174 52.2253C42.7894 51.4091 43.9361 51.0793 44.8852 51.485C45.8309 51.8941 46.2142 52.8879 45.7411 53.7058L43.8272 57.0161C43.4918 57.5964 42.8161 57.9309 42.1134 57.9309Z" fill="#C98850"/>
<g id="Group_4">
<path id="Vector_25" d="M30.6308 31.4482C30.344 31.4482 30.0513 31.3918 29.7768 31.2736L25.9493 29.6184C25.0036 29.2093 24.6203 28.2155 25.0934 27.3976C25.5654 26.5815 26.7129 26.25 27.6611 26.6574L31.4887 28.3125C32.4343 28.7216 32.8176 29.7153 32.3446 30.5332C32.0092 31.1135 31.3334 31.4482 30.6308 31.4482Z" fill="#925F4A"/>
<path id="Vector_26" d="M53.5983 8.27559H49.7707C48.7138 8.27559 47.8568 7.53534 47.8568 6.62034C47.8568 5.70534 48.7138 4.96509 49.7707 4.96509H53.5983C54.6552 4.96509 55.5122 5.70534 55.5122 6.62034C55.5122 7.53534 54.6552 8.27559 53.5983 8.27559Z" fill="#925F4A"/>
</g>
<path id="Vector_27" d="M61.2553 33.1033C60.5524 33.1033 59.8769 32.7688 59.5415 32.1885L57.6276 28.8781C57.1546 28.0603 57.5379 27.0661 58.4835 26.6574C59.4312 26.25 60.5795 26.5815 61.0513 27.3976L62.9652 30.708C63.4382 31.5258 63.0549 32.52 62.1093 32.9287C61.8344 33.0468 61.5421 33.1033 61.2553 33.1033Z" fill="#C98850"/>
<g id="Group_5">
<path id="Vector_28" d="M8.73387 41.2083C8.47653 41.0986 8.24304 40.936 8.05681 40.7251C7.41726 39.9969 7.58181 38.9587 8.42407 38.4057L11.8325 36.1677C12.6739 35.6144 13.8735 35.758 14.5143 36.4854C15.1539 37.2136 14.9893 38.2518 14.1471 38.8047L10.7388 41.0425C10.1411 41.4348 9.3641 41.4768 8.73387 41.2083Z" fill="#925F4A"/>
<path id="Vector_29" d="M80.3913 59.5862C79.9016 59.5862 79.4118 59.4246 79.0383 59.1013L75.2107 55.791C74.4632 55.1445 74.4632 54.097 75.2107 53.4505C75.9582 52.804 77.1695 52.804 77.917 53.4505L81.7445 56.7608C82.4921 57.4073 82.4921 58.4548 81.7445 59.1013C81.3706 59.4246 80.8808 59.5862 80.3913 59.5862Z" fill="#925F4A"/>
</g>
<path id="Vector_30" d="M84.2189 76.1379C83.7291 76.1379 83.2394 75.9763 82.8658 75.6531C82.1183 75.0066 82.1183 73.959 82.8658 73.3125L84.7797 71.6572C85.5272 71.0107 86.7385 71.0107 87.486 71.6572C88.2335 72.3037 88.2335 73.3513 87.486 73.9978L85.5721 75.6531C85.1981 75.9763 84.7086 76.1379 84.2189 76.1379Z" fill="#C98850"/>

<g id="Group_6">
<path id="Vector_31" d="M88.0464 6.62058V10.7966C88.0464 11.9677 89.4137 12.7683 90.6709 12.3333L96.4124 10.3471C97.1389 10.0957 97.6154 9.48708 97.6154 8.81039V6.62058C97.6154 5.70652 96.7584 4.96533 95.7015 4.96533H89.9601C88.9034 4.96533 88.0464 5.70652 88.0464 6.62058Z" fill="#FFE6A1"/>
<path id="Vector_32" d="M92.138 19.6695L90.9168 27.0633C90.6295 28.8026 91.9635 30.4331 93.9552 30.7775L97.4602 31.3837C98.9812 31.647 100.535 31.0901 101.396 29.9739L102.714 28.2639C103.396 27.378 103.545 26.2621 103.113 25.2654L99.1202 16.0571C98.6235 14.9118 96.9249 14.5936 95.9248 15.4586L93.2209 17.7969C92.6351 18.3033 92.2553 18.9605 92.138 19.6695Z" fill="#FFE6A1"/>
</g>
<g id="Group_7">
<path id="Vector_33" d="M101.733 28.4435L98.2277 27.8373C96.2357 27.4927 94.902 25.8622 95.1892 24.1231L96.4105 16.7294C96.5195 16.07 96.8751 15.4678 97.3923 14.9776C96.8729 14.9549 96.3396 15.0995 95.9248 15.458L93.2207 17.7965C92.6352 18.3029 92.2551 18.9601 92.1383 19.6691L90.917 27.0628C90.6298 28.8022 91.9637 30.4325 93.9555 30.7769L97.4604 31.3831C98.9812 31.646 100.535 31.0895 101.396 29.9733L102.549 28.4775C102.278 28.4821 102.006 28.4909 101.733 28.4435Z" fill="#FFD796"/>
<path id="Vector_34" d="M94.4985 9.02283C93.2413 9.45764 91.874 8.65702 91.874 7.48608V4.96533H89.9601C88.9032 4.96533 88.0462 5.70652 88.0462 6.62058V10.7966C88.0462 11.9677 89.4135 12.7683 90.6708 12.3333L96.4122 10.3471C97.1387 10.0957 97.6152 9.48727 97.6152 8.81039V7.94471L94.4985 9.02283Z" fill="#FFD796"/>
<path id="Vector_35" d="M102.397 36.098L101.266 38.0547C100.997 38.5207 100.997 39.0691 101.266 39.535L101.782 40.4283C102.297 41.3187 103.598 41.6176 104.555 41.0654L107.641 39.2866C108.173 38.9795 108.493 38.4627 108.493 37.9094V36.1261C108.493 34.9964 107.213 34.1986 105.974 34.556L103.503 35.2681C103.022 35.4067 102.624 35.7052 102.397 36.098Z" fill="#FFD796"/>
</g>
</g>
<defs>
<clipPath id="clip0_22_3">
<rect width="111" height="96" fill="white"/>
</clipPath>
</defs>
</svg>
